<svg width="777.0998046875px" height="120.8px" xmlns="http://www.w3.org/2000/svg" viewBox="-138.54990234374998 14.600000000000001 777.0998046875 120.8" style="background: rgba(0, 0, 0, 0);" preserveAspectRatio="xMidYMid"><defs><filter id="editing-hole" x="-100%" y="-100%" width="300%" height="300%"><feFlood flood-color="#000" result="black"></feFlood><feMorphology operator="dilate" radius="2" in="SourceGraphic" result="erode"></feMorphology><feGaussianBlur in="erode" stdDeviation="4" result="blur"></feGaussianBlur><feOffset in="blur" dx="2" dy="2" result="offset"></feOffset><feComposite operator="atop" in="offset" in2="black" result="merge"></feComposite><feComposite operator="in" in="merge" in2="SourceGraphic" result="inner-shadow"></feComposite></filter></defs><g filter="url(#editing-hole)"><g transform="translate(-28.37025499343872, 104.1200008392334)"><path d="M27.01-20.61L39.94-21.76L39.94-21.76Q35.33-11.65 35.33 0.06L35.33 0.06L35.33 0.06Q33.60 1.28 31.07 1.28L31.07 1.28L31.07 1.28Q28.54 1.28 26.94 0.10L26.94 0.10L26.94 0.10Q25.34-1.09 25.02-2.30L25.02-2.30L25.02-2.30Q23.42-0.64 20.83 0.32L20.83 0.32L20.83 0.32Q18.24 1.28 15.49 1.28L15.49 1.28L15.49 1.28Q12.74 1.28 10.34 0.38L10.34 0.38L10.34 0.38Q7.94-0.51 6.08-2.50L6.08-2.50L6.08-2.50Q1.98-6.85 1.98-15.10L1.98-15.10L1.98-15.10Q1.98-27.90 8.83-35.58L8.83-35.58L8.83-35.58Q15.87-43.52 28.35-43.52L28.35-43.52L28.35-43.52Q36.99-43.52 40.06-39.04L40.06-39.04L40.06-39.04Q41.02-37.63 41.02-35.94L41.02-35.94L41.02-35.94Q41.02-34.24 40.29-32.80L40.29-32.80L40.29-32.80Q39.55-31.36 38.40-30.21L38.40-30.21L38.40-30.21Q35.65-27.65 32.26-27.65L32.26-27.65L32.26-27.65Q30.91-27.65 29.63-28.10L29.63-28.10L29.63-28.10Q29.89-30.02 29.89-32.26L29.89-32.26L29.89-32.26Q29.89-34.50 29.73-35.52L29.73-35.52L29.73-35.52Q29.57-36.54 29.18-37.38L29.18-37.38L29.18-37.38Q28.35-39.10 26.53-39.10L26.53-39.10L26.53-39.10Q24.70-39.10 22.69-37.15L22.69-37.15L22.69-37.15Q20.67-35.20 19.07-32L19.07-32L19.07-32Q15.55-24.83 15.55-16.19L15.55-16.19L15.55-16.19Q15.55-12.22 17.09-9.41L17.09-9.41L17.09-9.41Q18.75-6.34 21.70-6.34L21.70-6.34L21.70-6.34Q22.72-6.34 23.65-6.85L23.65-6.85L23.65-6.85Q24.58-7.36 24.96-7.74L24.96-7.74L27.01-20.61ZM63.10-17.98L63.10-17.98L63.10-17.98Q65.41-22.08 65.41-26.24L65.41-26.24L65.41-26.24Q65.41-28.99 63.42-28.99L63.42-28.99L63.42-28.99Q61.89-28.99 60.29-26.37L60.29-26.37L60.29-26.37Q58.62-23.74 58.11-20.35L58.11-20.35L54.78 0L41.54 1.28L48.06-32.64L58.62-33.92L57.47-27.46L57.47-27.46Q60.61-33.92 67.65-33.92L67.65-33.92L67.65-33.92Q71.36-33.92 73.38-32L73.38-32L73.38-32Q75.39-30.08 75.39-26.14L75.39-26.14L75.39-26.14Q75.39-22.21 72.80-19.71L72.80-19.71L72.80-19.71Q70.21-17.22 65.79-17.22L65.79-17.22L65.79-17.22Q63.87-17.22 63.10-17.98ZM79.20-1.92L79.20-1.92L79.20-1.92Q77.70-3.58 77.02-6.21L77.02-6.21L77.02-6.21Q76.35-8.83 76.35-13.12L76.35-13.12L76.35-13.12Q76.35-17.41 77.82-21.31L77.82-21.31L77.82-21.31Q79.30-25.22 81.98-28.03L81.98-28.03L81.98-28.03Q87.49-33.92 96.58-33.92L96.58-33.92L96.58-33.92Q99.84-33.92 102.21-32.83L102.21-32.83L113.15-33.92L108.42-8.96L108.42-8.96Q108.22-8.19 108.22-6.78L108.22-6.78L108.22-6.78Q108.22-5.38 109.09-4.48L109.09-4.48L109.09-4.48Q109.95-3.58 111.23-3.46L111.23-3.46L111.23-3.46Q110.59-1.28 108.26 0L108.26 0L108.26 0Q105.92 1.28 103.30 1.28L103.30 1.28L103.30 1.28Q100.67 1.28 98.91 0.29L98.91 0.29L98.91 0.29Q97.15-0.70 96.64-2.37L96.64-2.37L96.64-2.37Q95.62-0.77 93.44 0.26L93.44 0.26L93.44 0.26Q91.26 1.28 88.35 1.28L88.35 1.28L88.35 1.28Q85.44 1.28 83.07 0.51L83.07 0.51L83.07 0.51Q80.70-0.26 79.20-1.92ZM92.70-27.90L92.70-27.90L92.70-27.90Q91.97-26.75 91.33-24.80L91.33-24.80L91.33-24.80Q90.69-22.85 89.63-17.63L89.63-17.63L89.63-17.63Q88.58-12.42 88.58-8.70L88.58-8.70L88.58-8.70Q88.58-4.99 89.15-3.90L89.15-3.90L89.15-3.90Q89.73-2.82 90.75-2.82L90.75-2.82L90.75-2.82Q92.80-2.82 94.30-4.77L94.30-4.77L94.30-4.77Q95.81-6.72 96.38-10.18L96.38-10.18L99.78-28.93L99.78-28.93Q98.43-30.08 96.86-30.08L96.86-30.08L96.86-30.08Q95.30-30.08 94.37-29.57L94.37-29.57L94.37-29.57Q93.44-29.06 92.70-27.90ZM136.51-33.92L136.51-33.92L136.51-33.92Q138.82-33.92 140.61-33.41L140.61-33.41L140.61-33.41Q140.67-33.66 140.80-34.37L140.80-34.37L141.12-36.35L141.12-36.35Q141.38-37.63 141.76-39.74L141.76-39.74L142.78-44.80L155.52-46.08L148.42-8.96L148.42-8.96Q148.35-8.58 148.35-7.94L148.35-7.94L148.35-6.91L148.35-6.91Q148.35-5.50 149.06-4.45L149.06-4.45L149.06-4.45Q149.76-3.39 150.91-3.39L150.91-3.39L150.91-3.39Q149.63-0.38 145.73 0.90L145.73 0.90L145.73 0.90Q144.38 1.28 142.50 1.28L142.50 1.28L142.50 1.28Q140.61 1.28 138.88 0.29L138.88 0.29L138.88 0.29Q137.15-0.70 136.64-2.37L136.64-2.37L136.64-2.37Q135.62-0.70 133.57 0.29L133.57 0.29L133.57 0.29Q131.52 1.28 128.54 1.28L128.54 1.28L128.54 1.28Q125.57 1.28 123.10 0.51L123.10 0.51L123.10 0.51Q120.64-0.26 119.10-1.92L119.10-1.92L119.10-1.92Q116.29-5.18 116.29-12.61L116.29-12.61L116.29-12.61Q116.29-22.21 121.92-28.03L121.92-28.03L121.92-28.03Q127.55-33.92 136.51-33.92ZM136.06-30.08L136.06-30.08L136.06-30.08Q133.70-30.08 132.42-27.52L132.42-27.52L132.42-27.52Q131.14-24.96 129.82-18.62L129.82-18.62L129.82-18.62Q128.51-12.29 128.51-6.59L128.51-6.59L128.51-6.59Q128.51-2.69 130.82-2.69L130.82-2.69L130.82-2.69Q132.86-2.69 134.30-4.74L134.30-4.74L134.30-4.74Q135.74-6.78 136.32-10.18L136.32-10.18L139.78-28.93L139.78-28.93Q138.43-30.08 136.06-30.08ZM147.46 7.62L147.46 7.62L147.46 7.62Q150.78 7.36 153.22 3.20L153.22 3.20L153.22 3.20Q155.07 0 156.29-5.89L156.29-5.89L161.47-32.64L174.34-33.92L168.90-5.89L168.90-5.89Q166.78 4.80 163.52 8.32L163.52 8.32L163.52 8.32Q161.79 10.24 159.55 10.88L159.55 10.88L159.55 10.88Q157.31 11.52 154.75 11.52L154.75 11.52L154.75 11.52Q149.38 11.52 147.46 7.62ZM162.50-41.54L162.50-41.54L162.50-41.54Q162.50-44.03 164.58-45.38L164.58-45.38L164.58-45.38Q166.66-46.72 169.66-46.72L169.66-46.72L169.66-46.72Q172.67-46.72 174.50-45.38L174.50-45.38L174.50-45.38Q176.32-44.03 176.32-41.54L176.32-41.54L176.32-41.54Q176.32-39.04 174.30-37.76L174.30-37.76L174.30-37.76Q172.29-36.48 169.28-36.48L169.28-36.48L169.28-36.48Q166.27-36.48 164.38-37.76L164.38-37.76L164.38-37.76Q162.50-39.04 162.50-41.54ZM179.42-1.92L179.42-1.92L179.42-1.92Q177.92-3.58 177.25-6.21L177.25-6.21L177.25-6.21Q176.58-8.83 176.58-13.12L176.58-13.12L176.58-13.12Q176.58-17.41 178.05-21.31L178.05-21.31L178.05-21.31Q179.52-25.22 182.21-28.03L182.21-28.03L182.21-28.03Q187.71-33.92 196.80-33.92L196.80-33.92L196.80-33.92Q200.06-33.92 202.43-32.83L202.43-32.83L213.38-33.92L208.64-8.96L208.64-8.96Q208.45-8.19 208.45-6.78L208.45-6.78L208.45-6.78Q208.45-5.38 209.31-4.48L209.31-4.48L209.31-4.48Q210.18-3.58 211.46-3.46L211.46-3.46L211.46-3.46Q210.82-1.28 208.48 0L208.48 0L208.48 0Q206.14 1.28 203.52 1.28L203.52 1.28L203.52 1.28Q200.90 1.28 199.14 0.29L199.14 0.29L199.14 0.29Q197.38-0.70 196.86-2.37L196.86-2.37L196.86-2.37Q195.84-0.77 193.66 0.26L193.66 0.26L193.66 0.26Q191.49 1.28 188.58 1.28L188.58 1.28L188.58 1.28Q185.66 1.28 183.30 0.51L183.30 0.51L183.30 0.51Q180.93-0.26 179.42-1.92ZM192.93-27.90L192.93-27.90L192.93-27.90Q192.19-26.75 191.55-24.80L191.55-24.80L191.55-24.80Q190.91-22.85 189.86-17.63L189.86-17.63L189.86-17.63Q188.80-12.42 188.80-8.70L188.80-8.70L188.80-8.70Q188.80-4.99 189.38-3.90L189.38-3.90L189.38-3.90Q189.95-2.82 190.98-2.82L190.98-2.82L190.98-2.82Q193.02-2.82 194.53-4.77L194.53-4.77L194.53-4.77Q196.03-6.72 196.61-10.18L196.61-10.18L200.00-28.93L200.00-28.93Q198.66-30.08 197.09-30.08L197.09-30.08L197.09-30.08Q195.52-30.08 194.59-29.57L194.59-29.57L194.59-29.57Q193.66-29.06 192.93-27.90ZM243.90 1.28L243.90 1.28L243.90 1.28Q236.16 1.28 236.16-4.74L236.16-4.74L236.16-4.74Q236.22-6.40 236.74-9.22L236.74-9.22L237.89-15.10L237.89-15.10Q239.62-23.42 239.62-25.28L239.62-25.28L239.62-25.28Q239.62-28.99 237.44-28.99L237.44-28.99L237.44-28.99Q233.79-28.99 231.87-19.46L231.87-19.46L228.10 0L215.23 1.28L221.89-32.70L232.38-33.92L231.36-27.65L231.36-27.65Q234.37-33.92 243.58-33.92L243.58-33.92L243.58-33.92Q248.06-33.92 249.95-32.03L249.95-32.03L249.95-32.03Q251.84-30.14 251.84-25.92L251.84-25.92L251.84-25.92Q251.84-21.95 249.79-12.67L249.79-12.67L249.79-12.67Q248.83-8.51 248.83-6.94L248.83-6.94L248.83-6.94Q248.83-5.38 249.70-4.48L249.70-4.48L249.70-4.48Q250.56-3.58 251.84-3.46L251.84-3.46L251.84-3.46Q251.20-1.28 248.99 0L248.99 0L248.99 0Q246.78 1.28 243.90 1.28ZM276.10-22.46L276.10-22.46L276.10-22.46Q276.99-24.83 276.99-26.88L276.99-26.88L276.99-26.88Q276.99-30.66 273.92-30.66L273.92-30.66L273.92-30.66Q272.32-30.66 271.01-29.22L271.01-29.22L271.01-29.22Q269.70-27.78 269.70-25.98L269.70-25.98L269.70-25.98Q269.70-24.70 270.72-23.68L270.72-23.68L270.72-23.68Q272.19-22.27 275.97-19.97L275.97-19.97L275.97-19.97Q279.74-17.66 281.18-15.78L281.18-15.78L281.18-15.78Q282.62-13.89 282.62-11.30L282.62-11.30L282.62-11.30Q282.62-8.70 281.38-6.34L281.38-6.34L281.38-6.34Q280.13-3.97 277.89-2.30L277.89-2.30L277.89-2.30Q273.09 1.28 265.41 1.28L265.41 1.28L265.41 1.28Q261.25 1.28 258.05-0.90L258.05-0.90L258.05-0.90Q254.85-3.01 254.85-5.50L254.85-5.50L254.85-5.50Q254.85-8 256.67-9.47L256.67-9.47L256.67-9.47Q258.50-10.94 261.18-10.94L261.18-10.94L261.18-10.94Q263.87-10.94 265.54-9.92L265.54-9.92L265.54-9.92Q264.70-7.81 264.70-6.40L264.70-6.40L264.70-6.40Q264.70-2.18 268.29-2.18L268.29-2.18L268.29-2.18Q269.82-2.18 270.85-3.14L270.85-3.14L270.85-3.14Q271.87-4.10 271.87-5.76L271.87-5.76L271.87-5.76Q271.87-9.02 266.37-12.48L266.37-12.48L266.37-12.48Q261.89-15.42 260.86-16.58L260.86-16.58L260.86-16.58Q259.14-18.62 259.14-21.18L259.14-21.18L259.14-21.18Q259.14-23.74 260.35-26.18L260.35-26.18L260.35-26.18Q261.57-28.61 263.81-30.34L263.81-30.34L263.81-30.34Q268.48-33.92 276.61-33.92L276.61-33.92L276.61-33.92Q280.77-33.92 283.23-32.26L283.23-32.26L283.23-32.26Q285.70-30.59 285.70-27.78L285.70-27.78L285.70-27.78Q285.70-24.96 284-23.36L284-23.36L284-23.36Q282.30-21.76 279.23-21.76L279.23-21.76L279.23-21.76Q277.12-21.76 276.10-22.46ZM304.58-30.34L304.58-30.34L304.58-30.34Q308.03-33.92 315.33-33.92L315.33-33.92L315.33-33.92Q319.36-33.92 321.57-31.78L321.57-31.78L321.57-31.78Q323.78-29.63 323.78-25.70L323.78-25.70L323.78-25.70Q323.78-21.76 321.57-18.98L321.57-18.98L321.57-18.98Q319.36-16.19 315.26-15.04L315.26-15.04L315.26-15.04Q315.58-13.76 316.03-12.42L316.03-12.42L316.93-9.86L316.93-9.86Q318.14-6.59 319.10-5.44L319.10-5.44L319.10-5.44Q320.06-4.29 321.34-3.90L321.34-3.90L321.34-3.90Q320.64-1.28 318.08 0.13L318.08 0.13L318.08 0.13Q316.03 1.28 313.22 1.28L313.22 1.28L313.22 1.28Q304.96 1.28 303.87-11.46L303.87-11.46L303.87-11.46Q303.68-13.25 303.68-15.04L303.68-15.04L303.68-15.04Q306.88-15.94 309.12-18.94L309.12-18.94L309.12-18.94Q311.36-21.95 311.36-25.47L311.36-25.47L311.36-25.47Q311.36-28.99 308.86-28.99L308.86-28.99L308.86-28.99Q307.07-28.99 305.66-27.01L305.66-27.01L305.66-27.01Q304.26-25.02 303.62-21.63L303.62-21.63L299.39 0L286.46 1.28L295.42-44.80L308.29-46.08L306.82-38.46L306.82-38.46Q305.86-33.09 304.58-30.34ZM342.08-3.52L342.08-3.52L342.08-3.52Q340.10 1.28 333.76 1.28L333.76 1.28L333.76 1.28Q330.50 1.28 328.45-0.96L328.45-0.96L328.45-0.96Q326.72-2.94 326.72-4.93L326.72-4.93L326.72-4.93Q326.72-10.11 329.09-20.22L329.09-20.22L331.46-32.64L344.45-33.92L340.54-13.70L340.54-13.70Q339.46-8.96 339.46-7.30L339.46-7.30L339.46-7.30Q339.46-3.65 342.08-3.52ZM332.61-41.54L332.61-41.54L332.61-41.54Q332.61-44.03 334.69-45.38L334.69-45.38L334.69-45.38Q336.77-46.72 339.78-46.72L339.78-46.72L339.78-46.72Q342.78-46.72 344.61-45.38L344.61-45.38L344.61-45.38Q346.43-44.03 346.43-41.54L346.43-41.54L346.43-41.54Q346.43-39.04 344.42-37.76L344.42-37.76L344.42-37.76Q342.40-36.48 339.39-36.48L339.39-36.48L339.39-36.48Q336.38-36.48 334.50-37.76L334.50-37.76L334.50-37.76Q332.61-39.04 332.61-41.54ZM385.73-42.69L385.73-42.69L385.73-42.69Q401.41-42.69 401.41-31.62L401.41-31.62L401.41-31.62Q401.41-25.54 397.50-21.89L397.50-21.89L397.50-21.89Q393.66-18.24 386.94-18.24L386.94-18.24L386.94-18.24Q383.81-18.24 381.38-20.03L381.38-20.03L381.38-20.03Q380.22-20.80 379.46-21.82L379.46-21.82L379.46-21.82Q384.13-21.82 386.59-24.67L386.59-24.67L386.59-24.67Q389.06-27.52 389.06-33.09L389.06-33.09L389.06-33.09Q389.06-38.66 383.55-38.66L383.55-38.66L382.02-38.66L382.02-38.66Q381.63-38.66 381.31-38.59L381.31-38.59L373.95 0L360.06 0L367.94-41.92L367.94-41.92Q374.78-42.56 378.75-42.62L378.75-42.62L378.75-42.62Q382.72-42.69 385.73-42.69ZM415.68 1.28L415.68 1.28L415.68 1.28Q401.60 1.28 401.60-11.97L401.60-11.97L401.60-11.97Q401.60-21.38 406.78-27.46L406.78-27.46L406.78-27.46Q412.29-33.92 421.82-33.92L421.82-33.92L421.82-33.92Q428.74-33.92 432.26-30.72L432.26-30.72L432.26-30.72Q435.78-27.52 435.78-20.80L435.78-20.80L435.78-20.80Q435.78-10.56 430.27-4.61L430.27-4.61L430.27-4.61Q424.90 1.28 415.68 1.28ZM417.34-26.56L417.34-26.56L417.34-26.56Q416.58-24.83 415.97-22.24L415.97-22.24L415.97-22.24Q415.36-19.65 414.59-15.55L414.59-15.55L414.59-15.55Q413.82-11.46 413.82-6.40L413.82-6.40L413.82-6.40Q413.82-4.74 414.37-3.65L414.37-3.65L414.37-3.65Q414.91-2.56 416.38-2.56L416.38-2.56L416.38-2.56Q417.86-2.56 418.78-3.26L418.78-3.26L418.78-3.26Q419.71-3.97 420.42-5.63L420.42-5.63L420.42-5.63Q421.70-8.58 422.72-14.05L422.72-14.05L422.72-14.05Q423.74-19.52 423.84-21.89L423.84-21.89L423.84-21.89Q423.94-24.26 423.94-26.02L423.94-26.02L423.94-26.02Q423.94-27.78 423.42-28.93L423.42-28.93L423.42-28.93Q422.91-30.08 421.47-30.08L421.47-30.08L421.47-30.08Q420.03-30.08 419.07-29.18L419.07-29.18L419.07-29.18Q418.11-28.29 417.34-26.56ZM459.58-17.98L459.58-17.98L459.58-17.98Q461.89-22.08 461.89-26.24L461.89-26.24L461.89-26.24Q461.89-28.99 459.90-28.99L459.90-28.99L459.90-28.99Q458.37-28.99 456.77-26.37L456.77-26.37L456.77-26.37Q455.10-23.74 454.59-20.35L454.59-20.35L451.26 0L438.02 1.28L444.54-32.64L455.10-33.92L453.95-27.46L453.95-27.46Q457.09-33.92 464.13-33.92L464.13-33.92L464.13-33.92Q467.84-33.92 469.86-32L469.86-32L469.86-32Q471.87-30.08 471.87-26.14L471.87-26.14L471.87-26.14Q471.87-22.21 469.28-19.71L469.28-19.71L469.28-19.71Q466.69-17.22 462.27-17.22L462.27-17.22L462.27-17.22Q460.35-17.22 459.58-17.98ZM473.92-6.40L473.92-6.40L473.92-6.40Q473.92-8.13 474.82-12.48L474.82-12.48L478.21-29.76L474.43-29.76L474.69-31.68L474.69-31.68Q482.37-33.98 489.79-39.62L489.79-39.62L492.86-39.62L491.33-32.64L496.32-32.64L495.74-29.76L490.82-29.76L487.55-12.48L487.55-12.48Q486.72-8.51 486.72-7.17L486.72-7.17L486.72-7.17Q486.72-4.10 489.41-3.46L489.41-3.46L489.41-3.46Q488.77-1.28 486.46 0L486.46 0L486.46 0Q484.16 1.28 480.90 1.28L480.90 1.28L480.90 1.28Q477.63 1.28 475.78-0.77L475.78-0.77L475.78-0.77Q473.92-2.82 473.92-6.40ZM498.53-1.92L498.53-1.92L498.53-1.92Q497.02-3.58 496.35-6.21L496.35-6.21L496.35-6.21Q495.68-8.83 495.68-13.12L495.68-13.12L495.68-13.12Q495.68-17.41 497.15-21.31L497.15-21.31L497.15-21.31Q498.62-25.22 501.31-28.03L501.31-28.03L501.31-28.03Q506.82-33.92 515.90-33.92L515.90-33.92L515.90-33.92Q519.17-33.92 521.54-32.83L521.54-32.83L532.48-33.92L527.74-8.96L527.74-8.96Q527.55-8.19 527.55-6.78L527.55-6.78L527.55-6.78Q527.55-5.38 528.42-4.48L528.42-4.48L528.42-4.48Q529.28-3.58 530.56-3.46L530.56-3.46L530.56-3.46Q529.92-1.28 527.58 0L527.58 0L527.58 0Q525.25 1.28 522.62 1.28L522.62 1.28L522.62 1.28Q520.00 1.28 518.24 0.29L518.24 0.29L518.24 0.29Q516.48-0.70 515.97-2.37L515.97-2.37L515.97-2.37Q514.94-0.77 512.77 0.26L512.77 0.26L512.77 0.26Q510.59 1.28 507.68 1.28L507.68 1.28L507.68 1.28Q504.77 1.28 502.40 0.51L502.40 0.51L502.40 0.51Q500.03-0.26 498.53-1.92ZM512.03-27.90L512.03-27.90L512.03-27.90Q511.30-26.75 510.66-24.80L510.66-24.80L510.66-24.80Q510.02-22.85 508.96-17.63L508.96-17.63L508.96-17.63Q507.90-12.42 507.90-8.70L507.90-8.70L507.90-8.70Q507.90-4.99 508.48-3.90L508.48-3.90L508.48-3.90Q509.06-2.82 510.08-2.82L510.08-2.82L510.08-2.82Q512.13-2.82 513.63-4.77L513.63-4.77L513.63-4.77Q515.14-6.72 515.71-10.18L515.71-10.18L519.10-28.93L519.10-28.93Q517.76-30.08 516.19-30.08L516.19-30.08L516.19-30.08Q514.62-30.08 513.70-29.57L513.70-29.57L513.70-29.57Q512.77-29.06 512.03-27.90ZM551.23-3.52L551.23-3.52L551.23-3.52Q549.25 1.28 542.91 1.28L542.91 1.28L542.91 1.28Q539.71 1.28 537.66-0.96L537.66-0.96L537.66-0.96Q536.00-2.82 536.00-4.93L536.00-4.93L536.00-4.93Q536.00-9.73 538.24-20.22L538.24-20.22L542.91-44.80L555.90-46.08L549.70-13.70L549.70-13.70Q548.61-8.96 548.61-7.30L548.61-7.30L548.61-7.30Q548.61-3.65 551.23-3.52Z" fill="#ccc"></path></g></g><style>text {
  font-size: 64px;
  font-family: Arial Black;
  dominant-baseline: central;
  text-anchor: middle;
}</style></svg>